<svg width="1048" height="363" viewBox="0 0 1048 363" fill="none" xmlns="http://www.w3.org/2000/svg">
<path d="M1010 5.13335C949.6 14.8667 910 23.5333 870.133 35.6667C812.533 53.1333 715.333 95.9334 665.467 125.533C655.733 131.4 647.467 136.467 647.067 136.867C646.8 137.133 648.133 140.067 650.133 143.267C652.267 146.333 654 149.267 654.133 149.4C654.4 149.667 658.267 147.667 662.933 145C667.6 142.2 694.8 128.067 723.333 113.667C778.267 85.8 822.133 66.2 869.333 48.6C902 36.4667 917.067 31.8 952 23.5333C996.667 12.8667 1044.67 0.466687 1041.33 0.600021C1039.47 0.600021 1025.47 2.60002 1010 5.13335Z" fill="black"/>
<path d="M1037.33 16.4667C1034.8 17.0001 1021.33 19.6667 1007.33 22.3334C894.667 43.5334 786 85.2667 686 145.667C658.533 162.333 659.867 161.267 661.6 165C663.467 169.133 664.8 169.133 670.667 165.267C673.2 163.533 683.333 157.667 693.067 152.333C702.8 147 711.6 141.533 712.533 140.2C713.467 138.867 717.067 137.133 720.8 136.2C724.4 135.4 737.6 129.8 750 123.667C829.733 84.7334 943.867 43.0001 1030.67 21.0001C1045.6 17.2667 1051.2 15.0001 1045.33 15.1334C1043.47 15.2667 1039.87 15.8001 1037.33 16.4667Z" fill="black"/>
<path d="M437.067 148.2C413.867 155.667 401.067 172.067 399.067 197.133C396.4 229.533 412.8 254.2 441.067 260.2C448.4 261.8 522.133 262.333 527.733 260.867C530.4 260.067 530.667 259.267 530.667 249.667V239.267L491.067 238.6C449.067 238.067 444.267 237.4 436.267 231.4C428.533 225.533 426.133 218.867 426 203C426 186.6 428.267 180.6 436.8 174.733C446.267 168.067 454.267 167 494.267 167H530.667V156.333V145.667L487.733 145.8C449.867 145.8 443.733 146.067 437.067 148.2Z" fill="black"/>
<path d="M609.2 147.933C606.933 150.6 545.333 258.333 545.333 259.533C545.333 259.933 551.6 260.333 559.333 260.333H573.333L577.067 254.6C579.067 251.4 582.133 245.667 583.867 241.933L587.067 235H622.8H658.4L664 245.267C672.4 261 671.467 260.333 688.267 260.333C696.267 260.333 702.667 259.933 702.4 259.267C702.267 258.733 698.667 252.6 694.533 245.667C690.4 238.733 679.867 220.733 671.333 205.667C662.667 190.6 651.333 171.133 646.133 162.333L636.667 146.333L623.867 145.933C613.067 145.667 610.933 145.933 609.2 147.933ZM627.067 177.267C628.667 180.067 633.733 188.867 638.133 197L646.4 211.667L624.133 212.333C612 212.733 601.6 212.867 601.067 212.6C599.467 211.933 621.067 172.333 622.933 172.333C623.6 172.333 625.467 174.6 627.067 177.267Z" fill="black"/>
<path d="M724.667 147.4C724.267 148.2 724.133 173.933 724.267 204.333L724.667 259.667L736.933 260.067L749.2 260.467L749.6 241.4L750 222.333L772.267 221.933L794.667 221.667L802.267 232.067C806.533 237.8 812.8 246.6 816.267 251.4L822.667 260.333H838C848.267 260.333 853.333 259.8 853.333 258.867C853.333 258.067 849.333 252.2 844.267 245.933C830.933 228.6 828 224.6 828 223.133C828 222.467 830.8 220.6 834.267 219C847.467 213.133 853.467 203.133 854.4 185.533C854.933 175.933 854.533 173.133 852 167.267C847.867 157.8 840.933 151.8 830 148.467C821.6 145.8 817.733 145.667 773.2 145.667C736 145.667 725.067 146.067 724.667 147.4ZM817.867 169.8C825.867 172.067 829.333 176.333 829.333 184.067C829.333 192.333 826.133 196.733 818.4 198.867C814.533 199.933 802.4 200.333 781.333 200.067L750 199.667L749.6 183.933L749.2 168.333H780.933C799.467 168.333 814.8 169 817.867 169.8Z" fill="black"/>
<path d="M885.067 146.467C884.533 146.867 884.133 172.733 884.133 203.8L883.867 260.333L940.933 260.067L998 259.667V249V238.333L954.4 237.933L910.667 237.667V225.667V213.667L949.733 213.4L988.667 213L989.067 202.6L989.467 192.333H950H910.667V180.333V168.333L953.733 168.067L996.667 167.667V157V146.333L941.2 145.933C910.8 145.8 885.467 145.933 885.067 146.467Z" fill="black"/>
<path d="M61.8667 152.6C60 155.8 51.0667 171.267 42.1333 187C25.4667 216.333 7.46667 247.533 2.66667 255.267C1.2 257.667 0 260.067 0 260.733C0 261.267 6.26667 261.667 13.8667 261.533C30 261.4 29.3333 261.933 36.6667 247C39.4667 241.533 42.4 236.6 43.2 236.067C44 235.533 60 235 78.8 235C118 235 114 233.667 122 249.667C124.8 255.133 127.2 259.933 127.6 260.333C128.533 261.267 157.333 261.133 157.333 260.067C157.333 259.667 152.133 250.333 145.867 239.4C139.6 228.6 125.733 204.333 115.067 185.667C104.4 167 94.6667 150.6 93.6 149.267C92 147.4 89.3333 147 78.4 147H65.2L61.8667 152.6ZM89.7333 190.6C95.3333 200.733 100.267 210.067 100.8 211.267C101.6 213.533 100 213.667 78.2667 213.667H54.9333L61.6 201.267C74.2667 177.8 77.4667 172.333 78.5333 172.333C79.0667 172.333 84.1333 180.6 89.7333 190.6Z" fill="black"/>
<path d="M182 148.733C181.6 149.533 181.467 175.267 181.6 205.667L182 261L193.333 260.867L204.667 260.733L205.733 205.8C206.4 175.667 206.533 150.067 206.133 149C205.2 146.333 182.933 146.067 182 148.733Z" fill="black"/>
<path d="M244 203.667V260.333H256.667H269.333V251.933C269.333 247.4 269.733 238.733 270.267 232.6L271.067 221.667H292.8H314.533L320.933 230.6C324.4 235.667 330.667 244.333 335.067 249.933L342.8 260.333H358.8H374.667L360.667 241.933C352.933 231.8 346.667 223.133 346.667 222.733C346.667 222.2 349.067 221 352.133 220.2C365.2 216.2 374.533 202.2 375.733 184.6C376.267 175.8 376 174.2 372.133 166.467C367.2 156.467 361.6 152.067 350 149C343.6 147.4 332.933 147 293.067 147H244V203.667ZM342.267 171.4C344.667 172.6 347.333 175 348.133 176.6C350.4 180.733 350 189 347.467 193C343.2 199.533 338.533 200.333 302.533 200.333H269.333V184.2V168.067L303.733 168.6C333.333 169 338.533 169.4 342.267 171.4Z" fill="black"/>
<path d="M531.067 275.267C524.8 282.067 510.133 300.6 504.267 309.267C492.933 325.933 485.333 345 485.333 356.6C485.333 363.267 487.467 364.2 488.667 357.933C489.733 351.933 500.533 329 506.933 318.867C509.467 314.867 519.6 303 529.467 292.467C539.333 282.067 547.6 272.867 547.733 272.2C548 271.533 545.333 271 541.733 271C536.133 271 534.667 271.533 531.067 275.267Z" fill="black"/>
<path d="M487.467 285.8C472.667 307.933 465.467 324.333 464.4 338.6C463.6 348.733 465.6 359.133 468.8 361.8C470.4 363 470.667 362.333 470.667 357.933C470.667 351.267 475.067 336.733 480.133 326.733C486.133 314.867 504.533 288.2 511.2 281.667C514.533 278.467 517.333 275.133 517.333 274.333C517.333 273.533 513.2 273 506.667 273H496L487.467 285.8Z" fill="black"/>
</svg>
